<svg fill="none" height="50" viewBox="0 0 130 50" width="130" xmlns="http://www.w3.org/2000/svg"><g fill="#2261f6"><circle cx="22.0589" cy="46.3234" r="3.67647"/><circle cx="22.0589" cy="3.67647" r="3.67647"/><circle cx="22.0587" cy="14.4607" r="2.94118"/><circle cx="11.7647" cy="9.06862" r="2.94118"/><circle cx="11.7647" cy="41.1765" r="2.94118"/><circle cx="31.25" cy="19.9754" r="2.94118"/><circle cx="31.25" cy="30.1472" r="2.94118"/><circle cx="22.0587" cy="35.5393" r="2.94118"/><circle cx="22.0588" cy="24.9998" r="2.32843"/><circle cx="11.7647" cy="30.2698" r="2.32843"/><circle cx="11.7647" cy="19.9754" r="2.32843"/><circle cx="1.71569" cy="14.4608" r="1.71569"/><circle cx="1.71569" cy="24.9999" r="1.71569"/><circle cx="1.71569" cy="35.5389" r="1.71569"/><circle cx="31.25" cy="9.06905" r="3.67647"/><circle cx="31.25" cy="41.0539" r="3.67647"/><circle cx="40.4411" cy="14.4606" r="3.67647"/><circle cx="40.4411" cy="35.5393" r="3.67647"/><circle cx="40.4411" cy="24.9997" r="3.67647"/><path d="m60.3242 30.0205c.6387.8145 1.582 1.2217 2.8301 1.2217 1.248 0 2.1885-.4043 2.8213-1.2129.6387-.8145.958-1.9629.958-3.4453 0-1.5-.3193-2.6631-.958-3.4893-.6328-.8261-1.5703-1.2392-2.8125-1.2392-1.2481 0-2.1943.416-2.8389 1.248-.6387.8262-.958 1.9863-.958 3.4805 0 1.4765.3193 2.6221.958 3.4365zm2.8213 3.1641c-1.9394 0-3.4717-.586-4.5967-1.7578-1.1191-1.1778-1.6787-2.8008-1.6787-4.8692 0-2.0801.5625-3.7031 1.6875-4.8691s2.6572-1.749 4.5967-1.749 3.4687.5859 4.5879 1.7578c1.1191 1.166 1.6787 2.789 1.6787 4.8691 0 2.0566-.5625 3.6738-1.6875 4.8516-1.125 1.1777-2.6543 1.7666-4.5879 1.7666zm6.8379-.1846 4.5088-6.5918-4.1748-6.2842h2.6806l3.0323 4.7989 3.1201-4.7989h2.54l-4.2627 6.3194 4.4912 6.5566h-2.7509l-3.252-5.0098-3.3222 5.0098zm16.1807 0v-5.1064l-4.4561-7.7696h2.584l3.0674 5.5723 3.0849-5.5723h2.5489l-4.4385 7.7256v5.1504zm13.7636.1846c-1.9629 0-3.498-.5918-4.6054-1.7754-1.1016-1.1836-1.6524-2.8037-1.6524-4.8604 0-1.3066.2578-2.455.7735-3.4453.5156-.9961 1.2744-1.7724 2.2763-2.3291 1.002-.5566 2.1856-.8349 3.5513-.8349 1.564 0 2.906.3369 4.025 1.0107l-.774 1.7754c-1.066-.5742-2.135-.8613-3.208-.8613-1.3003 0-2.3228.4218-3.0669 1.2656-.7442.8437-1.1162 1.9922-1.1162 3.4453 0 1.4414.331 2.581.9931 3.4189s1.6319 1.2569 2.909 1.2569c.821 0 1.565-.1289 2.233-.3867v-2.9883h-2.6986l.0176-1.8721h4.922v6.2139c-.797.3281-1.553.5713-2.268.7295-.709.1582-1.479.2373-2.3113.2373zm7.1363-.1846v-12.876h7.805l-.097 1.8897h-5.326v3.3222h5.063v1.8897h-5.063v3.876h5.52l-.079 1.8984zm10.125 0v-12.876h2.532c.457.7149 1.385 2.1563 2.786 4.3242 1.4 2.168 2.253 3.4864 2.557 3.9551.088.1348.238.3633.449.6856.216.3164.369.542.457.6767-.041-2.0097-.062-3.0527-.062-3.1289v-6.5127h2.171v12.876h-2.566l-5.81-9.0527-.422-.6944c.047 1.5469.071 2.6338.071 3.2608v6.4863z"/></g></svg>