<svg fill="none" height="32" viewBox="0 0 32 32" width="32" xmlns="http://www.w3.org/2000/svg" xmlns:xlink="http://www.w3.org/1999/xlink"><linearGradient id="a" gradientUnits="userSpaceOnUse" x1="-.056" x2="32.211" y1="-.057" y2="-.057"><stop offset="0" stop-color="#33f"/><stop offset="1" stop-color="#8080ff"/></linearGradient><clipPath id="b"><path d="m0 0h32v32h-32z"/></clipPath><g clip-path="url(#b)"><path d="m16.84-.01-7.362 7.361-9.534 9.533.022 15.037 15.037.022 7.364-7.364 9.532-9.532.045-15.105zm.532 1.278 12.38-.037-7.01 7.01h-12.342zm-9.176 9.176v12.342l-6.952 6.952-.019-12.323zm6.277 20.218-12.323-.017 6.952-6.952h12.342l-6.97 6.97zm-4.996-8.25v-12.891h12.89v12.889h-12.89zm14.17-.923v-12.343l7.01-7.01-.038 12.38z" fill="url(#a)"/></g></svg>