<svg enable-background="new 0 0 32 32" fill="#7f7fff" height="100" viewBox="0 0 32 32" width="100" xmlns="http://www.w3.org/2000/svg"><path d="m2 8.1h6.2c.6 0 1-.4 1-1s-.4-1-1-1h-6.2c-.6 0-1 .4-1 1s.5 1 1 1z"/><path d="m2 17h6.2c.6 0 1-.4 1-1s-.4-1-1-1h-6.2c-.6 0-1 .4-1 1s.5 1 1 1z"/><path d="m2 25.9h14.6c.6 0 1-.4 1-1s-.4-1-1-1h-14.6c-.6 0-1 .4-1 1s.5 1 1 1z"/><path d="m26.3 17.5c1.4-3.1.7-6.7-1.8-9.1-3.2-2.9-8.2-2.7-11.1.5s-2.7 8.2.5 11.1c1.5 1.4 3.4 2.1 5.3 2.1 1.2 0 2.4-.3 3.5-.8l3.9 3.6c.5.5 1.1.7 1.8.7s1.4-.3 1.9-.8c.5-.5.7-1.2.7-1.9s-.3-1.4-.9-1.8zm-11.1 1.1c-2.4-2.2-2.5-5.9-.4-8.3 1.2-1.3 2.8-1.9 4.4-1.9 1.4 0 2.8.5 4 1.5 2 1.9 2.5 4.9 1.1 7.3-.2.4-.5.7-.7 1-.4.4-.8.7-1.2 1-2.4 1.5-5.3 1.2-7.2-.6zm13.6 4.8c-.2.3-.6.3-.9 0l-3.6-3.3.6-.6.3-.3 3.5 3.2c.1.1.2.3.2.4.1.3 0 .5-.1.6z"/></svg>